<svg width="150" height="150" viewBox="0 0 150 150" fill="none" xmlns="http://www.w3.org/2000/svg">
<path d="M102.831 9.59941e-05C99.9943 -0.00967026 97.6475 0.726055 95.5109 2.0738C88.821 6.26678 83.9874 18.2272 81.7107 35.7348L85.4585 38.6647C90.7474 24.5036 95.9312 9.78914 105.493 0.205187C104.548 0.0684595 103.672 9.59941e-05 102.831 9.59941e-05ZM112.393 2.18123C102.691 10.5184 96.7719 26.5871 90.6423 42.7014L94.4251 45.6638C98.348 37.8508 102.236 29.6797 106.719 22.5276C110.747 16.0656 115.301 10.3523 121.15 6.7616C117.963 4.77579 115.055 3.26202 112.393 2.18123ZM126.684 10.5411C121.36 13.0966 116.632 18.3737 112.323 25.2198C121.535 19.9916 127.98 17.2733 133.234 15.7205C132.078 14.7276 130.852 13.7152 129.521 12.6832C128.575 11.9312 127.63 11.2215 126.684 10.5411ZM138.383 20.4637C131.728 21.9058 123.427 25.0896 106.404 35.7348C105.248 37.916 104.162 40.1296 103.042 42.3433C116.912 36.158 131.658 28.9636 144.758 28.2148C143.251 25.8384 141.15 23.2373 138.383 20.4637ZM147.069 34.042C144.968 34.042 142.691 34.335 140.274 34.8233C137.682 37.7532 135.896 41.7573 135.02 45.7941C134.495 48.1054 134.32 50.4493 134.355 52.5328C140.694 49.2123 144.898 45.6638 146.649 41.9852C147.84 39.5437 148.155 37.0044 147.384 34.042H147.069ZM131.308 37.2649C128.015 38.3717 124.547 39.7064 121.01 41.1388C117.367 47.6822 115.826 54.1279 115.686 59.7598C120.309 58.3925 124.477 56.9276 128.19 55.3975C127.77 52.1421 127.98 48.4309 128.821 44.6221C129.346 42.148 130.187 39.6739 131.308 37.2649ZM78.7335 41.0737L71.9734 48.5612L101.465 71.577L108.225 64.0895L78.7335 41.0737ZM112.464 44.7523C108.33 46.5428 104.197 48.3658 100.099 50.0912L109.521 57.4159C109.837 53.3792 110.782 49.1146 112.464 44.7523ZM67.9104 53.0536L50.3624 72.4885L79.8893 95.5043L97.4374 76.0695L67.9104 53.0536ZM130.362 61.062C126.719 62.5269 122.691 63.8942 118.383 65.1638C121.255 65.4568 124.933 65.9451 128.681 66.7264C132.603 67.5403 136.526 68.7448 139.293 70.1771C142.061 71.6421 143.427 73.1396 143.637 74.6371V74.6696C143.917 76.7205 143.497 78.1855 142.516 79.6179C141.535 81.0502 139.854 82.4501 137.577 83.7848C132.954 86.3891 125.984 88.5052 118.768 90.6212C111.588 92.7698 104.127 94.8858 98.1729 98.0761C92.2185 101.299 87.4549 106.117 87.56 112.758C87.6301 118.976 91.6931 124.315 97.0521 128.775C102.411 133.235 109.241 137.011 116.036 140.136C129.626 146.354 143.076 150 143.076 150L144.828 144.401C144.828 144.401 131.798 140.852 118.838 134.862C112.358 131.9 105.914 128.286 101.255 124.412C96.5967 120.506 93.9348 116.502 93.8647 112.693C93.7946 108.526 96.3515 105.857 101.325 103.155C106.334 100.485 113.479 98.3365 120.695 96.2205C127.91 94.1045 135.195 91.9884 140.87 88.7656C143.672 87.1704 146.159 85.2497 147.84 82.7431C149.556 80.2689 150.327 77.1763 149.871 73.9209C149.311 69.8516 146.088 67.0194 142.411 65.0661C138.838 63.178 134.565 61.9735 130.362 61.062ZM46.3344 76.981L39.5744 84.4684L69.0663 107.484L75.8263 99.9968L46.3344 76.981ZM32.1138 88.7981C27.4904 90.1654 23.2873 91.6304 19.6095 93.1604C20.0298 96.4158 19.8197 100.127 18.9686 103.936C18.4257 106.41 17.6095 108.917 16.4677 111.293C19.7847 110.186 23.2522 108.852 26.7899 107.419C30.4326 100.876 31.9737 94.43 32.1138 88.7981ZM38.2784 91.142C37.9632 95.1788 37.0175 99.4434 35.3362 103.806C39.4693 102.015 43.6024 100.192 47.6654 98.4667L45.844 97.0343L38.2784 91.142ZM13.4625 96.0252C7.12976 99.3457 2.90563 102.894 1.14382 106.573C-0.0295548 109.014 -0.351794 111.554 0.418778 114.516C2.61491 114.548 5.00719 114.256 7.55358 113.735C10.135 110.805 11.9108 106.801 12.7935 102.764C13.3084 100.453 13.5045 98.1086 13.4625 96.0252ZM53.3746 102.894C49.4517 110.707 45.5638 118.878 41.0805 126.04C37.0525 132.486 32.4991 138.183 26.6848 141.796C29.8371 143.782 32.7443 145.28 35.4063 146.386C45.1085 138.053 51.0279 121.971 57.1574 105.857L53.3746 102.894ZM44.7582 106.215C30.8879 112.4 16.1174 119.594 3.05974 120.343C4.55885 122.72 6.66392 125.324 9.41696 128.091C16.0999 126.659 24.3731 123.436 41.3957 112.823C42.5516 110.642 43.6374 108.428 44.7582 106.215ZM62.3413 109.893C57.0524 124.054 51.8685 138.769 42.3064 148.34C46.3694 148.958 49.4867 148.242 52.2888 146.484C58.9788 142.285 63.8124 130.337 66.0891 112.823L62.3413 109.893ZM35.4763 123.338C26.2645 128.579 19.8197 131.281 14.5553 132.811C15.7287 133.821 16.9651 134.83 18.2926 135.871C19.2558 136.62 20.205 137.336 21.1157 138.02C26.4396 135.448 31.1681 130.207 35.4763 123.338Z" fill="black"/>
</svg>
