<svg width="150" height="150" viewBox="0 0 150 150" fill="none" xmlns="http://www.w3.org/2000/svg">
<path d="M119.449 60.9375C118.652 60.9375 115.219 60.9609 113.979 61.0283L97.0547 61.4736L58.0254 14.0625H39.624L61.4766 62.2881L32.9678 62.71L19.9951 46.875H4.72852L10.7666 74.4668C10.8105 74.625 10.8633 74.7803 10.9219 74.9326C10.9262 74.9469 10.9262 74.9622 10.9219 74.9766C10.8618 75.1279 10.81 75.2825 10.7666 75.4395L4.64648 103.125H19.8164L33.1318 87.0117L61.4824 87.6475L39.6211 135.938H58.0781L97.043 88.5498L113.968 89.001C115.225 89.0684 118.655 89.0918 119.435 89.0918C126.568 89.0918 132.404 88.1133 136.781 86.1797C144.205 82.9102 145.312 77.7715 145.312 75C145.312 66.1934 135.645 60.9375 119.449 60.9375Z" fill="black"/>
</svg>
