<svg width="150" height="150" viewBox="0 0 150 150" fill="none" xmlns="http://www.w3.org/2000/svg">
<path d="M113 69C113 63.0062 108.75 57.9937 103.119 56.7875C105.369 53.0312 106.75 48.6875 106.75 44C106.75 30.2125 95.5375 19 81.75 19C72.275 19 64.1125 24.3563 59.875 32.15C55.6375 24.3563 47.475 19 38 19C24.2125 19 13 30.2125 13 44C13 49.6375 14.95 54.7875 18.1062 58.975C16.5283 60.1282 15.2439 61.6366 14.3568 63.3782C13.4698 65.1197 13.005 67.0456 13 69V119C13 125.894 18.6062 131.5 25.5 131.5H100.5C107.394 131.5 113 125.894 113 119V102.519L138 115.019V71.2687L113 83.7688V69ZM81.75 31.5C88.6437 31.5 94.25 37.1062 94.25 44C94.25 50.8938 88.6437 56.5 81.75 56.5C74.8562 56.5 69.25 50.8938 69.25 44C69.25 37.1062 74.8562 31.5 81.75 31.5ZM38 31.5C44.8937 31.5 50.5 37.1062 50.5 44C50.5 50.8938 44.8937 56.5 38 56.5C31.1062 56.5 25.5 50.8938 25.5 44C25.5 37.1062 31.1062 31.5 38 31.5Z" fill="black"/>
</svg>
