<svg width="1476" height="62" viewBox="0 0 1476 62" fill="none" xmlns="http://www.w3.org/2000/svg">
<path d="M6 31C54.8 16.3333 103.6 16.3333 152.4 31C201.2 45.6667 250 45.6667 298.8 31C347.6 16.3333 396.4 16.3333 445.2 31C494 45.6667 542.8 45.6667 591.6 31C640.4 16.3333 689.2 16.3333 738 31C786.8 45.6667 835.6 45.6667 884.4 31C933.2 16.3333 982 16.3333 1030.8 31C1079.6 45.6667 1128.4 45.6667 1177.2 31C1226 16.3333 1274.8 16.3333 1323.6 31C1372.4 45.6667 1421.2 45.6667 1470 31" stroke="black" stroke-width="39"/>
</svg>
