<svg width="1448" height="152" viewBox="0 0 1448 152" fill="none" xmlns="http://www.w3.org/2000/svg">
<mask id="mask0_212_13" style="mask-type:alpha" maskUnits="userSpaceOnUse" x="0" y="0" width="1448" height="152">
<rect width="1448" height="152" fill="#D9D9D9"/>
</mask>
<g mask="url(#mask0_212_13)">
<rect x="-12" width="1464" height="92" fill="black"/>
<rect x="-12" y="60" width="1464" height="92" fill="white"/>
<path d="M-12 62C36.8 47.3333 85.6 47.3333 134.4 62C183.2 76.6667 232 76.6667 280.8 62C329.6 47.3333 378.4 47.3333 427.2 62C476 76.6667 524.8 76.6667 573.6 62C622.4 47.3333 671.2 47.3333 720 62C768.8 76.6667 817.6 76.6667 866.4 62C915.2 47.3333 964 47.3333 1012.8 62C1061.6 76.6667 1110.4 76.6667 1159.2 62C1208 47.3333 1256.8 47.3333 1305.6 62C1354.4 76.6667 1403.2 76.6667 1452 62" stroke="black" stroke-width="39"/>
</g>
</svg>
